<svg width="32" height="32" viewBox="0 0 32 32" fill="none" xmlns="http://www.w3.org/2000/svg">
<path fill-rule="evenodd" clip-rule="evenodd" d="M25.8161 9.46406C25.3057 7.84248 23.7902 6.6665 22 6.6665C20.2584 6.6665 18.7767 7.77958 18.2276 9.33317H13.7724C13.2233 7.77958 11.7416 6.6665 10 6.6665C8.19468 6.6665 6.6687 7.86248 6.17114 9.50535C5.18321 9.80489 4.33308 10.4791 3.8 11.3998L1.18382 16.2063C0.437381 17.2831 0 18.5904 0 19.9998C0 23.6817 2.98477 26.6665 6.66667 26.6665C10.1369 26.6665 12.9879 24.015 13.3042 20.6274C13.9103 21.4592 14.892 21.9998 16 21.9998C17.108 21.9998 18.0897 21.4592 18.6958 20.6274C19.0121 24.015 21.8631 26.6665 25.3333 26.6665C29.0152 26.6665 32 23.6817 32 19.9998C32 18.7874 31.6763 17.6505 31.1107 16.6709L31.1333 16.6665L28.3333 11.3998C27.7742 10.434 26.8661 9.73946 25.8161 9.46406ZM11.3333 19.9998C11.3333 22.5771 9.244 24.6665 6.66667 24.6665C4.08934 24.6665 2 22.5771 2 19.9998C2 17.4225 4.08934 15.3331 6.66667 15.3331C9.244 15.3331 11.3333 17.4225 11.3333 19.9998ZM30 19.9998C30 22.5771 27.9107 24.6665 25.3333 24.6665C22.756 24.6665 20.6667 22.5771 20.6667 19.9998C20.6667 17.4225 22.756 15.3331 25.3333 15.3331C27.9107 15.3331 30 17.4225 30 19.9998Z" fill="#CA362E"/>
</svg>